<?xml version="1.0" encoding="UTF-8"?><svg id="Layer_2" xmlns="http://www.w3.org/2000/svg" xmlns:xlink="http://www.w3.org/1999/xlink" viewBox="0 0 214.82 33.08"><defs><style>.cls-1{fill:none;}.cls-2{clip-path:url(#clippath);}.cls-3{fill:#6a788a;}.cls-4{fill:#ff5c1a;}.cls-5{fill:#505a68;}.cls-6{clip-path:url(#clippath-1);}</style><clipPath id="clippath"><rect class="cls-1" width="110.27" height="33.08"/></clipPath><clipPath id="clippath-1"><rect class="cls-1" y="0" width="110.27" height="33.08"/></clipPath></defs><g id="Layer_1-2"><g><g id="Ilustración_17"><g class="cls-2"><g class="cls-6"><path class="cls-4" d="M39.52,10.79c-2.25,0-3.96,.51-5.12,1.55V6.32c0-.52-.18-.96-.56-1.33-.37-.36-.81-.54-1.32-.54h-.05c-.51,0-.94,.18-1.32,.54-.37,.37-.56,.82-.56,1.33v13.43c0,2.46,.89,4.55,2.63,6.27,1.73,1.73,3.83,2.6,6.28,2.6s4.56-.87,6.3-2.62c1.74-1.74,2.62-3.84,2.62-6.3s-.87-4.56-2.62-6.3c-1.74-1.74-3.84-2.61-6.3-2.61m3.62,12.58c-1,1-2.21,1.5-3.62,1.5s-2.64-.5-3.64-1.5c-.99-1-1.49-2.21-1.49-3.62s.5-2.64,1.49-3.64c1-1,2.21-1.5,3.64-1.5s2.62,.5,3.62,1.5c1,1,1.5,2.21,1.5,3.64s-.5,2.62-1.5,3.62M12.72,2.01L2,8.21C.09,9.31-.57,11.75,.53,13.66c.23,.4,.52,.74,.86,1.03h0s.09,.07,.09,.07c.06,.05,.12,.09,.17,.14l3.99,3.1c-.64-1.11-.26-2.52,.84-3.16l10.23-5.91,1.16,2.01L21.7,1.44,11.56,0l1.16,2.01Zm4.61,14.93h0s-.1-.08-.1-.08c-.05-.04-.11-.09-.16-.12l-3.99-3.1c.64,1.11,.26,2.52-.85,3.16l-.49,.29c-1.82,1.05-5.72,3.3-7.95,4.59C.81,23.39,0,24.65,0,28.55v4.54l16.73-9.66c1.91-1.1,2.56-3.54,1.46-5.45-.23-.4-.52-.74-.86-1.03m55.82-6.15c-2.46,0-4.56,.87-6.3,2.61-1.74,1.74-2.61,3.84-2.61,6.3s.87,4.56,2.61,6.3c1.75,1.74,3.84,2.62,6.3,2.62,2.24,0,3.95-.62,5.12-1.87,0,.53,.19,.97,.56,1.32,.37,.37,.81,.56,1.32,.56h.05c.5,0,.94-.19,1.32-.56,.37-.35,.56-.79,.56-1.32v-7.04c0-2.46-.87-4.56-2.61-6.3-1.74-1.74-3.85-2.61-6.3-2.61m3.62,12.55c-.99,.99-2.2,1.49-3.62,1.49s-2.64-.5-3.64-1.49c-.99-1-1.49-2.21-1.49-3.64s.5-2.62,1.49-3.62c1-1,2.21-1.5,3.64-1.5s2.62,.5,3.62,1.5c1,1,1.5,2.21,1.5,3.62s-.5,2.64-1.5,3.64m33.14-2.38c-.38-.54-.89-.8-1.53-.8-.9,0-1.5,.42-1.79,1.27-.35,1.01-.96,1.84-1.84,2.48-.9,.65-1.9,.98-3,.98-1.66,0-2.88-.5-3.67-1.49,.51-.24,2.22-1.01,5.14-2.34,2.35-1.06,4.25-1.92,5.7-2.57,.49-.22,.82-.57,.99-1.05,.08-.22,.12-.43,.12-.65,0-.27-.06-.53-.19-.79-.7-1.55-1.78-2.8-3.24-3.74-1.46-.97-3.08-1.45-4.86-1.45-2.46,0-4.56,.87-6.3,2.61-1.74,1.74-2.62,3.84-2.62,6.3s.87,4.56,2.62,6.3c1.74,1.74,3.84,2.62,6.3,2.62,1.92,0,3.65-.56,5.2-1.69,1.53-1.08,2.6-2.51,3.2-4.27,.08-.23,.12-.45,.12-.66,0-.36-.12-.71-.36-1.04m-13.3-1.21c0-1.42,.5-2.64,1.49-3.64,1-1,2.21-1.5,3.64-1.5,1.59,0,2.76,.45,3.53,1.36l-8.65,3.88v-.11Zm-38.88-1.39c-1.52-.4-2.38-.66-2.58-.77-.6-.31-.9-.77-.9-1.39,0-.44,.15-.82,.46-1.14,.31-.31,.69-.46,1.14-.46h3c.52,0,.96-.19,1.33-.56,.37-.35,.56-.79,.56-1.31v-.03c0-.51-.19-.96-.56-1.33-.37-.37-.81-.56-1.33-.56h-2.85c-1.48,0-2.76,.53-3.82,1.59-1.05,1.05-1.58,2.32-1.58,3.81s.43,2.71,1.28,3.55c.6,.59,1.51,1.06,2.74,1.42,1.58,.44,2.45,.7,2.6,.77,.59,.29,.88,.72,.88,1.28,0,.46-.15,.84-.46,1.15-.31,.31-.69,.46-1.15,.46h-4.19c-.51,0-.94,.18-1.32,.56-.37,.37-.56,.82-.56,1.33v.03c0,.53,.19,.97,.56,1.32,.37,.37,.81,.56,1.32,.56h4.04c1.49,0,2.76-.53,3.82-1.58,1.05-1.06,1.58-2.34,1.58-3.82s-.43-2.67-1.28-3.48c-.6-.57-1.51-1.03-2.74-1.38m29.97-13.91h-.05c-.5,0-.94,.18-1.32,.54-.37,.37-.56,.82-.56,1.33V26.75c0,.53,.19,.97,.56,1.32,.37,.37,.81,.56,1.32,.56h.05c.5,0,.94-.19,1.31-.56,.37-.35,.56-.79,.56-1.32V6.32c0-.52-.18-.96-.56-1.33-.37-.36-.81-.54-1.31-.54"/></g></g></g><g><path class="cls-3" d="M128.42,15.12c1.7-.16,2.67-.89,2.91-2.21,.14-.75,.25-1.82,.34-3.22,.1-1.51,.23-2.67,.36-3.48,.22-1.35,.81-2.41,1.74-3.16,.94-.75,2.07-1.13,3.41-1.13h1.79l-.52,3.07h-1.09c-.54,0-.96,.13-1.27,.38-.31,.25-.52,.64-.62,1.16-.1,.55-.2,1.48-.29,2.78-.14,1.63-.29,2.88-.44,3.74-.16,.92-.51,1.68-1.05,2.29-.55,.61-1.3,1-2.25,1.17l-.03,.05c1.46,.3,2.18,1.1,2.18,2.42,0,.4-.07,.93-.22,1.6s-.39,1.72-.74,3.16c-.49,1.84-.73,2.96-.73,3.35,0,.66,.47,.99,1.4,.99h1.07l-.55,3.09h-1.79c-1.16,0-2.08-.29-2.74-.87s-1-1.4-1-2.46c0-.81,.36-2.44,1.07-4.89,.19-.69,.36-1.36,.52-1.99,.16-.63,.23-1.08,.23-1.34,0-1-.73-1.56-2.18-1.66l.49-2.83Z"/><path class="cls-5" d="M152.82,8.64c1.22,.6,2.16,1.44,2.81,2.52,.65,1.08,.98,2.35,.98,3.81,0,.5-.06,1.14-.18,1.9-.31,1.79-.98,3.37-2.01,4.76s-2.34,2.46-3.93,3.22-3.33,1.14-5.24,1.14h-6.84l3.22-18.25h6.84c1.68,0,3.13,.3,4.36,.9Zm-3,12.16c1.11-.94,1.8-2.24,2.08-3.93,.09-.52,.13-.95,.13-1.3,0-1.28-.39-2.28-1.17-2.98-.78-.7-1.89-1.05-3.33-1.05h-2.13l-1.87,10.66h2.11c1.68,0,3.08-.47,4.19-1.4Z"/><path class="cls-5" d="M170.81,12.8c1.1,1.01,1.65,2.4,1.65,4.15,0,.57-.04,1.08-.13,1.53-.07,.4-.17,.82-.31,1.27h-10.06c-.02,.1-.03,.27-.03,.49,0,.76,.21,1.34,.62,1.74s.97,.6,1.66,.6c1.11,0,1.96-.47,2.55-1.4h4.73c-.62,1.47-1.64,2.68-3.04,3.61-1.4,.94-2.98,1.4-4.73,1.4-1.87,0-3.37-.52-4.49-1.56-1.12-1.04-1.68-2.45-1.68-4.24,0-.54,.05-1.09,.16-1.66,.26-1.51,.8-2.83,1.61-3.95,.81-1.13,1.83-1.99,3.04-2.6,1.21-.61,2.54-.91,3.98-.91,1.87,0,3.36,.51,4.46,1.52Zm-2.79,4.2c0-.69-.22-1.23-.65-1.6s-1-.56-1.72-.56c-.76,0-1.43,.23-2.01,.69-.58,.46-1,1.11-1.26,1.96h5.59c.03-.24,.05-.41,.05-.49Z"/><path class="cls-5" d="M180.58,21.83l4.99-10.35h4.76l-7.72,14.51h-5.51l-2.57-14.51h4.73l1.33,10.35Z"/><path class="cls-5" d="M192.55,25.65c-.91-.36-1.62-.87-2.15-1.52-.52-.65-.78-1.4-.78-2.25,0-.12,.02-.34,.05-.65h4.29c-.04,.54,.12,.97,.48,1.29,.36,.32,.86,.48,1.52,.48,.55,0,1.01-.1,1.38-.31s.55-.5,.55-.88-.2-.65-.58-.87-1.04-.48-1.94-.79c-.94-.31-1.72-.62-2.35-.92-.63-.3-1.17-.74-1.62-1.31-.45-.57-.68-1.29-.68-2.16s.25-1.62,.75-2.3c.5-.68,1.21-1.22,2.12-1.6,.91-.38,1.96-.57,3.16-.57s2.24,.19,3.12,.58c.88,.39,1.57,.93,2.05,1.62,.48,.69,.73,1.47,.73,2.34l-.03,.39h-4.03c.03-.52-.12-.94-.47-1.25-.35-.31-.84-.47-1.48-.47-.5,0-.91,.1-1.24,.31-.32,.21-.48,.49-.48,.86,0,.38,.21,.7,.64,.95,.42,.25,1.09,.53,1.99,.84,.94,.31,1.71,.62,2.33,.92,.61,.3,1.14,.73,1.59,1.27,.44,.55,.66,1.23,.66,2.04,0,.94-.28,1.74-.85,2.42s-1.33,1.19-2.31,1.55c-.98,.36-2.09,.53-3.34,.53-1.14,0-2.17-.18-3.08-.55Z"/><path class="cls-3" d="M212.31,18.63c-.49,.38-.79,.89-.9,1.53-.1,.59-.21,1.63-.31,3.12-.02,.23-.06,.73-.12,1.52-.06,.79-.15,1.48-.27,2.07-.23,1.35-.81,2.41-1.75,3.16s-2.08,1.13-3.42,1.13h-1.79l.55-3.09h1.09c.55,0,.98-.12,1.29-.36,.3-.24,.5-.63,.58-1.17,.12-.69,.23-1.66,.31-2.89,.14-1.56,.28-2.76,.42-3.61,.16-.92,.51-1.68,1.07-2.29,.55-.61,1.31-1,2.26-1.2l.03-.05c-1.47-.29-2.21-1.17-2.21-2.63,0-.28,.03-.55,.08-.83,.1-.55,.26-1.23,.46-2.01s.33-1.31,.4-1.57c.4-1.42,.64-2.4,.73-2.94,.04-.21,.05-.36,.05-.44,0-.73-.47-1.09-1.4-1.09h-1.07l.52-3.07h1.79c1.16,0,2.08,.29,2.76,.88,.68,.59,1.01,1.41,1.01,2.47,0,.28-.03,.59-.08,.94-.16,.83-.45,2.02-.88,3.56-.42,1.4-.68,2.45-.81,3.15-.04,.21-.05,.36-.05,.44,0,.5,.18,.91,.55,1.21,.36,.3,.91,.49,1.64,.56l-.49,2.83c-.85,.07-1.52,.29-2.01,.68Z"/></g></g></g></svg>